<svg width="12" height="12" viewBox="0 0 12 12" fill="none" xmlns="http://www.w3.org/2000/svg">
<path d="M1.18212 8.88262L1.54187 9.0575H1.54187L1.18212 8.88262ZM2.78599 10.4865L2.96086 10.8462H2.96086L2.78599 10.4865ZM3.50163 10.1471L3.30627 10.4961L3.50163 10.1471ZM1.52228 8.08266L1.87927 7.90223L1.52228 8.08266ZM1.52198 8.18347L1.88172 8.35835L1.88172 8.35835L1.52198 8.18347ZM1.4 5.88308C1.4 3.40714 3.40714 1.4 5.88308 1.4V0.6C2.96531 0.6 0.6 2.96531 0.6 5.88308H1.4ZM1.87927 7.90223C1.57282 7.29587 1.4 6.61023 1.4 5.88308H0.6C0.6 6.73843 0.803576 7.5474 1.16528 8.26308L1.87927 7.90223ZM1.54187 9.0575L1.88172 8.35835L1.16223 8.0086L0.82237 8.70775L1.54187 9.0575ZM2.61111 10.1267C1.92778 10.4589 1.2097 9.74083 1.54187 9.0575L0.82237 8.70775C0.158034 10.0744 1.5942 11.5106 2.96086 10.8462L2.61111 10.1267ZM3.31026 9.78689L2.61111 10.1267L2.96086 10.8462L3.66001 10.5064L3.31026 9.78689ZM5.88308 10.3662C5.08851 10.3662 4.34334 10.1598 3.69699 9.79803L3.30627 10.4961C4.06891 10.923 4.9482 11.1662 5.88308 11.1662V10.3662ZM10.3662 5.88308C10.3662 8.35901 8.35901 10.3662 5.88308 10.3662V11.1662C8.80084 11.1662 11.1662 8.80084 11.1662 5.88308H10.3662ZM5.88308 1.4C8.35901 1.4 10.3662 3.40714 10.3662 5.88308H11.1662C11.1662 2.96531 8.80084 0.6 5.88308 0.6V1.4ZM3.66003 10.5064C3.54899 10.5604 3.41681 10.558 3.30627 10.4961L3.69699 9.79803C3.57628 9.73047 3.43178 9.72781 3.31024 9.78689L3.66003 10.5064ZM1.16528 8.26308C1.12077 8.17501 1.12724 8.08059 1.16223 8.0086L1.88172 8.35835C1.94769 8.22264 1.95575 8.05354 1.87927 7.90223L1.16528 8.26308Z" fill="#001833"/>
<circle cx="3.46622" cy="5.90732" r="0.610385" fill="#001833"/>
<circle cx="5.9075" cy="5.90726" r="0.610385" fill="#001833"/>
<circle cx="8.34915" cy="5.90726" r="0.610385" fill="#001833"/>
</svg>
