<svg width="16" height="17" viewBox="0 0 16 17" fill="none" xmlns="http://www.w3.org/2000/svg">
<path d="M15 6.00001V12.1539C15 14.278 13.2589 16 11.1111 16H4.88889C2.74112 16 1 14.278 1 12.1539V6.00001M15 6.00001C15 3.87584 13.2589 2.15386 11.1111 2.15386H4.88889C2.74112 2.15386 1 3.87584 1 6.00001M15 6.00001H1M11.5 1V3.30769M4.5 1V3.30769M3.72222 9.07693H4.5M7.61111 9.07693H8.38889M11.5 9.07693H12.2778M3.72222 12.1539H4.5M7.61111 12.1539H8.38889M11.5 12.1539H12.2778" stroke="#001833" stroke-width="1.5" stroke-linecap="round" stroke-linejoin="round"/>
</svg>
